# xmcd
#
# Track frame offsets:
#	150
#	17833
#	32406
#	46904
#	58656
#	71282
#	89336
#	102200
#	130913
#	143983
#	156808
#	180703
#	194776
#	209487
#	233314
#	244716
#	260009
#	274939
#	293090
#	316440
#
# Disc length: 4439
#
# Revision: 1
# Processed by: cddbd v1.5.1PL0 Copyright (c) Steve Scherf et al.
# Submitted via: CDex 1.50Beta7
# Normalized: r0:TDELIM( - )
#
DISCID=23115514
DTITLE=Mega Jazz - 
DYEAR=1900
DGENRE=Jazz
TTITLE0=Miles Davis - 52nd Street Theme
TTITLE1=Louis Armstrong - Basin Street Blues
TTITLE2=Sidney Bechet - Mood Indigo
TTITLE3=Art Tatum Trio - Moonglow
TTITLE4=Thelonious Monk - Blue Monk
TTITLE5=John Coltrane - Naima
TTITLE6=Duke Ellington - In a mellotone
TTITLE7=Wes Montgomery - 4 on 6
TTITLE8=Nat King Cole Trio - It's only a paper moon
TTITLE9=Lionel Hampton 6 His Orchestra - Everybody loves my baby
TTITLE10=Wayne Shorter - The Albatross
TTITLE11=Ella Fitzgerald - My heart belongs to daddy
TTITLE12=Django Reinhardt and Stephane Grappelli - Nuages
TTITLE13=Dinah Washington - Iv'e got you under my skin
TTITLE14=Dizzy Gillespie - Jealousy
TTITLE15=Count Basie - Every day I have the blues
TTITLE16=Billie Holiday - Love me or leave me
TTITLE17=Bill Evans - Blue in green
TTITLE18=Archie Shepp - Sophisticated lady
TTITLE19=Art Blakey - Straight no chaser
EXTD=
EXTT0=
EXTT1=
EXTT2=
EXTT3=
EXTT4=
EXTT5=
EXTT6=
EXTT7=
EXTT8=
EXTT9=
EXTT10=
EXTT11=
EXTT12=
EXTT13=
EXTT14=
EXTT15=
EXTT16=
EXTT17=
EXTT18=
EXTT19=
PLAYORDER=
